<svg width="76" height="25" viewBox="0 0 76 25" fill="none" xmlns="http://www.w3.org/2000/svg">
<path d="M8.16 24.32C6.70933 24.32 5.41867 23.968 4.288 23.264C3.15733 22.56 2.272 21.6 1.632 20.384C0.992 19.1467 0.672 17.7493 0.672 16.192C0.672 14.6133 0.992 13.2053 1.632 11.968C2.272 10.7307 3.15733 9.77067 4.288 9.088C5.41867 8.384 6.70933 8.032 8.16 8.032C9.14133 8.032 10.0373 8.21333 10.848 8.576C11.6587 8.91733 12.32 9.408 12.832 10.048C13.3653 10.688 13.6853 11.4133 13.792 12.224V20.096C13.6853 20.928 13.3653 21.664 12.832 22.304C12.32 22.9227 11.6587 23.4133 10.848 23.776C10.0373 24.1387 9.14133 24.32 8.16 24.32ZM9.344 19.36C10.2613 19.36 10.9973 19.0613 11.552 18.464C12.128 17.8667 12.416 17.0987 12.416 16.16C12.416 15.5413 12.288 14.9973 12.032 14.528C11.776 14.0587 11.4133 13.6853 10.944 13.408C10.496 13.1307 9.97333 12.992 9.376 12.992C8.77867 12.992 8.24533 13.1307 7.776 13.408C7.328 13.6853 6.96533 14.0693 6.688 14.56C6.432 15.0293 6.304 15.5627 6.304 16.16C6.304 16.7787 6.432 17.3333 6.688 17.824C6.944 18.2933 7.30667 18.6667 7.776 18.944C8.24533 19.2213 8.768 19.36 9.344 19.36ZM12.192 24V19.808L12.992 15.968L12.192 12.192V8.352H17.664V24H12.192ZM20.9133 24V8.352H26.4813V24H20.9133ZM26.4813 15.488L23.9852 13.376C24.6039 11.6053 25.4253 10.272 26.4493 9.376C27.4733 8.48 28.8066 8.032 30.4493 8.032C31.1959 8.032 31.8359 8.128 32.3693 8.32C32.9239 8.512 33.3933 8.81067 33.7773 9.216L30.5453 13.536C30.3746 13.344 30.1293 13.1947 29.8093 13.088C29.5106 12.96 29.1693 12.896 28.7853 12.896C28.0599 12.896 27.4946 13.12 27.0893 13.568C26.6839 13.9947 26.4813 14.6347 26.4813 15.488ZM39.4923 24L33.1242 8.352H39.0763L43.1403 21.536H40.8683L44.9003 8.352H50.7882L44.4203 23.968L39.4923 24ZM59.911 24.352C58.1617 24.352 56.615 24.0107 55.271 23.328C53.927 22.624 52.871 21.6533 52.103 20.416C51.335 19.1787 50.951 17.76 50.951 16.16C50.951 14.5813 51.3243 13.184 52.071 11.968C52.8177 10.7307 53.831 9.76 55.111 9.056C56.4123 8.33067 57.8737 7.968 59.495 7.968C61.0737 7.968 62.471 8.30933 63.687 8.992C64.9243 9.65333 65.8843 10.5813 66.567 11.776C67.271 12.9493 67.623 14.2933 67.623 15.808C67.623 16.128 67.6017 16.4587 67.559 16.8C67.5377 17.12 67.4737 17.4933 67.367 17.92L53.575 17.984V14.4L65.159 14.304L62.663 15.872C62.6417 14.9973 62.5137 14.2827 62.279 13.728C62.0443 13.152 61.703 12.7147 61.255 12.416C60.807 12.1173 60.2417 11.968 59.559 11.968C58.855 11.968 58.247 12.1387 57.735 12.48C57.223 12.8213 56.8283 13.3013 56.551 13.92C56.2737 14.5387 56.135 15.2853 56.135 16.16C56.135 17.056 56.2843 17.824 56.583 18.464C56.8817 19.0827 57.3083 19.552 57.863 19.872C58.4177 20.192 59.1003 20.352 59.911 20.352C60.679 20.352 61.351 20.224 61.927 19.968C62.5243 19.712 63.0577 19.3173 63.527 18.784L66.439 21.696C65.671 22.5707 64.7323 23.232 63.623 23.68C62.535 24.128 61.2977 24.352 59.911 24.352Z" fill="#324065"/>
<path d="M70.7498 15.36L69.7898 0.671999H75.8698L74.9098 15.36H70.7498ZM72.8298 24.352C71.9124 24.352 71.1444 24.0427 70.5258 23.424C69.9284 22.8053 69.6298 22.0373 69.6298 21.12C69.6298 20.2027 69.9284 19.4347 70.5258 18.816C71.1444 18.1973 71.9124 17.888 72.8298 17.888C73.7471 17.888 74.5044 18.1973 75.1018 18.816C75.6991 19.4347 75.9978 20.2027 75.9978 21.12C75.9978 22.0373 75.6991 22.8053 75.1018 23.424C74.5044 24.0427 73.7471 24.352 72.8298 24.352Z" fill="#FF9595"/>
</svg>
