<svg width="1440" height="900" viewBox="0 0 1440 900" fill="none" xmlns="http://www.w3.org/2000/svg">
<mask id="mask0_13_1552" style="mask-type:alpha" maskUnits="userSpaceOnUse" x="0" y="0" width="1440" height="900">
<rect width="1440" height="900" fill="#334166"/>
</mask>
<g mask="url(#mask0_13_1552)">
<g filter="url(#filter0_f_13_1552)">
<circle cx="693.992" cy="990.544" r="170.027" transform="rotate(0.854528 693.992 990.544)" fill="#FF5981"/>
</g>
<g filter="url(#filter1_f_13_1552)">
<circle cx="960.264" cy="1062.4" r="159.601" fill="#8459FF"/>
</g>
<g filter="url(#filter2_f_13_1552)">
<circle cx="455.952" cy="1020" r="135.816" fill="#FFA959"/>
</g>
</g>
<circle cx="331" cy="590" r="8" fill="#FF9595"/>
<circle cx="1156" cy="698" r="8" fill="#FF9595"/>
<rect x="1240.08" y="326" width="16" height="16" rx="4" transform="rotate(70.4302 1240.08 326)" fill="#E8C7EB"/>
<rect x="656.076" y="788" width="16" height="16" rx="4" transform="rotate(70.4302 656.076 788)" fill="#55607F"/>
<rect x="217.076" y="311" width="16" height="16" rx="4" transform="rotate(70.4302 217.076 311)" fill="#F9B96E"/>
<rect x="240.851" y="463" width="6.20931" height="6.20931" rx="3.10465" transform="rotate(70.4302 240.851 463)" fill="#9B7DF0"/>
<rect x="1043.85" y="280" width="6.20931" height="6.20931" rx="3.10465" transform="rotate(70.4302 1043.85 280)" fill="#324065"/>
<rect x="213.851" y="742" width="6.20931" height="6.20931" rx="3.10465" transform="rotate(70.4302 213.851 742)" fill="#324065"/>
<rect x="1190.85" y="526" width="6.20931" height="6.20931" rx="3.10465" transform="rotate(70.4302 1190.85 526)" fill="#9B7DF0"/>
<rect x="515.076" y="198" width="16" height="16" rx="4" transform="rotate(70.4302 515.076 198)" fill="#9B7DF0"/>
<defs>
<filter id="filter0_f_13_1552" x="146.965" y="443.516" width="1094.06" height="1094.06" filterUnits="userSpaceOnUse" color-interpolation-filters="sRGB">
<feFlood flood-opacity="0" result="BackgroundImageFix"/>
<feBlend mode="normal" in="SourceGraphic" in2="BackgroundImageFix" result="shape"/>
<feGaussianBlur stdDeviation="188.5" result="effect1_foregroundBlur_13_1552"/>
</filter>
<filter id="filter1_f_13_1552" x="423.663" y="525.799" width="1073.2" height="1073.2" filterUnits="userSpaceOnUse" color-interpolation-filters="sRGB">
<feFlood flood-opacity="0" result="BackgroundImageFix"/>
<feBlend mode="normal" in="SourceGraphic" in2="BackgroundImageFix" result="shape"/>
<feGaussianBlur stdDeviation="188.5" result="effect1_foregroundBlur_13_1552"/>
</filter>
<filter id="filter2_f_13_1552" x="-56.8633" y="507.184" width="1025.63" height="1025.63" filterUnits="userSpaceOnUse" color-interpolation-filters="sRGB">
<feFlood flood-opacity="0" result="BackgroundImageFix"/>
<feBlend mode="normal" in="SourceGraphic" in2="BackgroundImageFix" result="shape"/>
<feGaussianBlur stdDeviation="188.5" result="effect1_foregroundBlur_13_1552"/>
</filter>
</defs>
</svg>
