<svg width="1720" height="1720" viewBox="0 0 1720 1720" fill="none" xmlns="http://www.w3.org/2000/svg">
<g opacity="0.15" clip-path="url(#clip0_47_53)">
<path d="M859.993 829.305C843.045 829.305 829.305 843.045 829.305 859.993C829.305 876.941 843.045 890.681 859.993 890.681C876.941 890.681 890.681 876.941 890.681 859.993C890.681 843.045 876.941 829.305 859.993 829.305Z" stroke="white" stroke-miterlimit="10"/>
<path d="M859.994 799.711C826.701 799.711 799.712 826.7 799.712 859.993C799.712 893.286 826.701 920.275 859.994 920.275C893.286 920.275 920.275 893.286 920.275 859.993C920.275 826.7 893.286 799.711 859.994 799.711Z" stroke="white" stroke-miterlimit="10"/>
<path d="M859.993 770.117C810.356 770.117 770.117 810.356 770.117 859.993C770.117 909.63 810.356 949.869 859.993 949.869C909.63 949.869 949.869 909.63 949.869 859.993C949.869 810.356 909.63 770.117 859.993 770.117Z" stroke="white" stroke-miterlimit="10"/>
<path d="M859.993 740.523C794.011 740.523 740.523 794.012 740.523 859.993C740.523 925.975 794.011 979.463 859.993 979.463C925.974 979.463 979.463 925.975 979.463 859.993C979.463 794.012 925.974 740.523 859.993 740.523Z" stroke="white" stroke-miterlimit="10"/>
<path d="M859.993 710.929C777.667 710.929 710.929 777.667 710.929 859.993C710.929 942.319 777.667 1009.06 859.993 1009.06C942.319 1009.06 1009.06 942.319 1009.06 859.993C1009.06 777.667 942.319 710.929 859.993 710.929Z" stroke="white" stroke-miterlimit="10"/>
<path d="M859.993 681.335C761.323 681.335 681.335 761.323 681.335 859.993C681.335 958.663 761.323 1038.65 859.993 1038.65C958.663 1038.65 1038.65 958.663 1038.65 859.993C1038.65 761.323 958.663 681.335 859.993 681.335Z" stroke="white" stroke-miterlimit="10"/>
<path d="M859.994 651.741C744.979 651.741 651.741 744.978 651.741 859.993C651.741 975.008 744.979 1068.25 859.994 1068.25C975.008 1068.25 1068.25 975.008 1068.25 859.993C1068.25 744.978 975.008 651.741 859.994 651.741Z" stroke="white" stroke-miterlimit="10"/>
<path d="M859.993 622.147C728.634 622.147 622.147 728.634 622.147 859.993C622.147 991.352 728.634 1097.84 859.993 1097.84C991.352 1097.84 1097.84 991.352 1097.84 859.993C1097.84 728.634 991.352 622.147 859.993 622.147Z" stroke="white" stroke-miterlimit="10"/>
<path d="M859.993 592.553C712.289 592.553 592.552 712.29 592.552 859.993C592.552 1007.7 712.289 1127.43 859.993 1127.43C1007.7 1127.43 1127.43 1007.7 1127.43 859.993C1127.43 712.29 1007.7 592.553 859.993 592.553Z" stroke="white" stroke-miterlimit="10"/>
<path d="M859.993 562.958C695.946 562.958 562.959 695.945 562.959 859.993C562.959 1024.04 695.946 1157.03 859.993 1157.03C1024.04 1157.03 1157.03 1024.04 1157.03 859.993C1157.03 695.945 1024.04 562.958 859.993 562.958Z" stroke="white" stroke-miterlimit="10"/>
<path d="M859.993 533.364C679.601 533.364 533.364 679.601 533.364 859.993C533.364 1040.39 679.601 1186.62 859.993 1186.62C1040.39 1186.62 1186.62 1040.39 1186.62 859.993C1186.62 679.601 1040.39 533.364 859.993 533.364Z" stroke="white" stroke-miterlimit="10"/>
<path d="M859.994 503.77C663.257 503.77 503.771 663.257 503.771 859.993C503.771 1056.73 663.257 1216.22 859.994 1216.22C1056.73 1216.22 1216.22 1056.73 1216.22 859.993C1216.22 663.257 1056.73 503.77 859.994 503.77Z" stroke="white" stroke-miterlimit="10"/>
<path d="M859.993 474.176C646.912 474.176 474.176 646.912 474.176 859.993C474.176 1073.07 646.912 1245.81 859.993 1245.81C1073.07 1245.81 1245.81 1073.07 1245.81 859.993C1245.81 646.912 1073.07 474.176 859.993 474.176Z" stroke="white" stroke-miterlimit="10"/>
<path d="M859.993 444.582C630.568 444.582 444.582 630.567 444.582 859.993C444.582 1089.42 630.568 1275.4 859.993 1275.4C1089.42 1275.4 1275.4 1089.42 1275.4 859.993C1275.4 630.568 1089.42 444.582 859.993 444.582Z" stroke="white" stroke-miterlimit="10"/>
<path d="M859.994 414.988C614.224 414.988 414.988 614.223 414.988 859.993C414.988 1105.76 614.224 1305 859.994 1305C1105.76 1305 1305 1105.76 1305 859.993C1305 614.223 1105.76 414.988 859.994 414.988Z" stroke="white" stroke-miterlimit="10"/>
<path d="M859.993 385.393C597.879 385.393 385.394 597.879 385.394 859.993C385.394 1122.11 597.879 1334.59 859.993 1334.59C1122.11 1334.59 1334.59 1122.11 1334.59 859.993C1334.59 597.879 1122.11 385.393 859.993 385.393Z" stroke="white" stroke-miterlimit="10"/>
<path d="M859.994 355.799C581.535 355.799 355.8 581.535 355.8 859.993C355.8 1138.45 581.535 1364.19 859.994 1364.19C1138.45 1364.19 1364.19 1138.45 1364.19 859.993C1364.19 581.535 1138.45 355.799 859.994 355.799Z" stroke="white" stroke-miterlimit="10"/>
<path d="M859.993 326.205C565.191 326.205 326.206 565.19 326.205 859.993C326.205 1154.8 565.19 1393.78 859.993 1393.78C1154.8 1393.78 1393.78 1154.8 1393.78 859.993C1393.78 565.19 1154.8 326.205 859.993 326.205Z" stroke="white" stroke-miterlimit="10"/>
<path d="M859.993 296.611C548.846 296.611 296.611 548.846 296.611 859.993C296.611 1171.14 548.846 1423.37 859.993 1423.37C1171.14 1423.37 1423.38 1171.14 1423.38 859.993C1423.38 548.846 1171.14 296.611 859.993 296.611Z" stroke="white" stroke-miterlimit="10"/>
<path d="M859.994 267.017C532.502 267.017 267.018 532.501 267.018 859.993C267.017 1187.48 532.502 1452.97 859.994 1452.97C1187.49 1452.97 1452.97 1187.48 1452.97 859.993C1452.97 532.501 1187.49 267.017 859.994 267.017Z" stroke="white" stroke-miterlimit="10"/>
<path d="M859.993 237.423C516.157 237.423 237.423 516.157 237.423 859.993C237.423 1203.83 516.157 1482.56 859.993 1482.56C1203.83 1482.56 1482.56 1203.83 1482.56 859.993C1482.56 516.157 1203.83 237.423 859.993 237.423Z" stroke="white" stroke-miterlimit="10"/>
<path d="M859.993 207.829C499.812 207.829 207.828 499.813 207.828 859.993C207.828 1220.17 499.812 1512.16 859.993 1512.16C1220.17 1512.16 1512.16 1220.17 1512.16 859.993C1512.16 499.813 1220.17 207.829 859.993 207.829Z" stroke="white" stroke-miterlimit="10"/>
<path d="M859.993 178.235C483.469 178.235 178.235 483.468 178.235 859.993C178.235 1236.52 483.469 1541.75 859.993 1541.75C1236.52 1541.75 1541.75 1236.52 1541.75 859.993C1541.75 483.469 1236.52 178.235 859.993 178.235Z" stroke="white" stroke-miterlimit="10"/>
<path d="M859.993 148.64C467.124 148.64 148.64 467.124 148.64 859.993C148.64 1252.86 467.124 1571.35 859.993 1571.35C1252.86 1571.35 1571.35 1252.86 1571.35 859.993C1571.35 467.124 1252.86 148.64 859.993 148.64Z" stroke="white" stroke-miterlimit="10"/>
<path d="M859.994 119.046C450.78 119.046 119.047 450.779 119.047 859.993C119.047 1269.21 450.78 1600.94 859.994 1600.94C1269.21 1600.94 1600.94 1269.21 1600.94 859.993C1600.94 450.779 1269.21 119.046 859.994 119.046Z" stroke="white" stroke-miterlimit="10"/>
<path d="M859.993 89.4522C434.435 89.4522 89.4524 434.435 89.4523 859.993C89.4523 1285.55 434.435 1630.53 859.993 1630.53C1285.55 1630.53 1630.53 1285.55 1630.53 859.993C1630.53 434.435 1285.55 89.4522 859.993 89.4522Z" stroke="white" stroke-miterlimit="10"/>
<path d="M859.993 59.8582C418.09 59.8582 59.8579 418.091 59.8579 859.993C59.8578 1301.9 418.09 1660.13 859.993 1660.13C1301.9 1660.13 1660.13 1301.9 1660.13 859.993C1660.13 418.091 1301.9 59.8582 859.993 59.8582Z" stroke="white" stroke-miterlimit="10"/>
<path d="M859.994 30.2637C401.747 30.2637 30.2644 401.746 30.2644 859.993C30.2643 1318.24 401.747 1689.72 859.993 1689.72C1318.24 1689.72 1689.72 1318.24 1689.72 859.993C1689.72 401.746 1318.24 30.2638 859.994 30.2637Z" stroke="white" stroke-miterlimit="10"/>
<path d="M859.993 0.669603C385.402 0.669561 0.669794 385.402 0.669753 859.993C0.669711 1334.58 385.402 1719.32 859.993 1719.32C1334.58 1719.32 1719.32 1334.58 1719.32 859.993C1719.32 385.402 1334.58 0.669644 859.993 0.669603Z" stroke="white" stroke-miterlimit="10"/>
</g>
<defs>
<clipPath id="clip0_47_53">
<rect width="1720" height="1720" fill="white" transform="translate(1720 1720) rotate(-180)"/>
</clipPath>
</defs>
</svg>
