<svg width="166" height="166" viewBox="0 0 166 166" fill="none" xmlns="http://www.w3.org/2000/svg">
<circle opacity="0.25" cx="83" cy="83" r="82.5" stroke="#F9B96E"/>
<circle cx="83" cy="83" r="63" fill="#F9B96E"/>
<path d="M95.1299 69.6633C96.5775 71.0948 97.6966 72.8239 98.4098 74.7307C99.1229 76.6376 99.4131 78.6767 99.2601 80.7067V99.6793H90.2487V95.5933C88.4376 98.6707 85.0583 100.246 80.1109 100.32C77.8357 100.375 75.5754 99.9383 73.4848 99.0388C71.6978 98.2869 70.1645 97.0372 69.0675 95.4387C68.0803 93.8891 67.566 92.0854 67.5876 90.2482C67.5327 88.8412 67.8219 87.4419 68.43 86.1718C69.0381 84.9017 69.9468 83.7991 71.0774 82.9596C74.3051 80.9526 78.0876 80.0244 81.8778 80.3092H89.6303C89.6871 79.4078 89.5443 78.5049 89.2122 77.665C88.88 76.8251 88.3667 76.0688 87.7087 75.4501C86.065 74.2037 84.0235 73.5991 81.9662 73.7494C80.1882 73.7549 78.4221 74.0381 76.7316 74.5887C75.1378 75.052 73.6412 75.8003 72.3142 76.7974L68.8466 70.0609C70.8612 68.6873 73.1052 67.6849 75.4726 67.1013C78.0177 66.3897 80.6488 66.033 83.2914 66.0411C87.5493 65.7463 91.7659 67.0364 95.1299 69.6633V69.6633ZM86.9136 92.5895C88.1738 91.8311 89.1335 90.6608 89.6303 89.2764V85.8088H83.0042C79.0507 85.8088 77.085 87.1119 77.085 89.7182C77.0681 90.2875 77.19 90.8524 77.4401 91.3642C77.6902 91.876 78.061 92.3192 78.5206 92.6557C79.7033 93.4344 81.1043 93.8136 82.5183 93.738C84.0603 93.7597 85.5794 93.3628 86.9136 92.5895Z" fill="white"/>
<path d="M113.042 112.799H53.6504V53.4075H113.042V112.799ZM55.8591 110.59H110.833V55.6162H55.8591V110.59Z" fill="white"/>
<path d="M58.4874 111.683C58.4874 109.616 56.8113 107.94 54.7437 107.94C52.6761 107.94 51 109.616 51 111.683C51 113.751 52.6761 115.427 54.7437 115.427C56.8113 115.427 58.4874 113.751 58.4874 111.683Z" fill="white"/>
<path d="M58.4874 54.7437C58.4874 52.6761 56.8113 51 54.7437 51C52.6761 51 51 52.6761 51 54.7437C51 56.8113 52.6761 58.4874 54.7437 58.4874C56.8113 58.4874 58.4874 56.8113 58.4874 54.7437Z" fill="white"/>
<path d="M87.09 51H79.6025V58.4874H87.09V51Z" fill="white"/>
<path d="M87.09 107.94H79.6025V115.427H87.09V107.94Z" fill="white"/>
<path d="M115.693 111.683C115.693 109.616 114.016 107.94 111.949 107.94C109.881 107.94 108.205 109.616 108.205 111.683C108.205 113.751 109.881 115.427 111.949 115.427C114.016 115.427 115.693 113.751 115.693 111.683Z" fill="white"/>
<path d="M115.693 54.7437C115.693 52.6761 114.016 51 111.949 51C109.881 51 108.205 52.6761 108.205 54.7437C108.205 56.8113 109.881 58.4874 111.949 58.4874C114.016 58.4874 115.693 56.8113 115.693 54.7437Z" fill="white"/>
<path d="M115.693 79.3594H108.205V86.8468H115.693V79.3594Z" fill="white"/>
<path d="M58.4874 79.3594H51V86.8468H58.4874V79.3594Z" fill="white"/>
</svg>
