<svg width="166" height="166" viewBox="0 0 166 166" fill="none" xmlns="http://www.w3.org/2000/svg">
<circle opacity="0.25" cx="83" cy="83" r="82.5" stroke="#9B7DF0"/>
<circle cx="83" cy="83" r="63" fill="#9B7DF0"/>
<path d="M103.689 113.739H55.3854C55.0925 113.739 54.8116 113.622 54.6045 113.415C54.3974 113.208 54.281 112.927 54.281 112.634C54.281 112.342 54.3974 112.061 54.6045 111.854C54.8116 111.646 55.0925 111.53 55.3854 111.53H103.689C105.767 111.524 107.758 110.696 109.227 109.227C110.696 107.758 111.524 105.767 111.53 103.689V63.0716C111.53 60.9862 110.702 58.9863 109.227 57.5117C107.753 56.0371 105.753 55.2087 103.667 55.2087H63.0716C60.988 55.2145 58.9914 56.0448 57.5181 57.5181C56.0448 58.9914 55.2145 60.988 55.2087 63.0716V90.2163C55.2087 90.5092 55.0923 90.7901 54.8852 90.9972C54.6781 91.2043 54.3972 91.3206 54.1043 91.3206C53.8115 91.3206 53.5306 91.2043 53.3235 90.9972C53.1163 90.7901 53 90.5092 53 90.2163V63.0716C53.0058 60.4022 54.0688 57.8439 55.9563 55.9563C57.8439 54.0688 60.4022 53.0058 63.0716 53H103.689C106.357 53.0058 108.913 54.0695 110.797 55.9577C112.681 57.8459 113.739 60.4043 113.739 63.0716V103.689C113.727 106.351 112.665 108.9 110.782 110.782C108.9 112.665 106.351 113.727 103.689 113.739Z" fill="white"/>
<path d="M54.9652 103.446L64.4625 112.966L55.8707 113.739C55.6348 113.762 55.3965 113.734 55.1729 113.655C54.9493 113.576 54.7458 113.448 54.5771 113.282C54.4083 113.115 54.2784 112.913 54.1966 112.691C54.1148 112.468 54.0831 112.23 54.1038 111.994L54.9652 103.446Z" fill="white"/>
<path d="M67.7982 110.779C67.6538 110.778 67.511 110.748 67.3782 110.691C67.2455 110.635 67.1254 110.552 67.0252 110.448L57.4616 100.884C57.356 100.785 57.2718 100.665 57.2142 100.532C57.1566 100.399 57.127 100.256 57.127 100.111C57.127 99.9661 57.1566 99.8228 57.2142 99.6898C57.2718 99.5569 57.356 99.4371 57.4616 99.338L87.2346 69.5649C87.3373 69.4614 87.4595 69.3793 87.594 69.3232C87.7286 69.2671 87.8729 69.2383 88.0187 69.2383C88.1645 69.2383 88.3089 69.2671 88.4434 69.3232C88.578 69.3793 88.7001 69.4614 88.8028 69.5649L98.2781 79.1065C98.3842 79.2051 98.4684 79.3248 98.5255 79.4579C98.5826 79.5911 98.6111 79.7347 98.6094 79.8795C98.5962 80.1559 98.4776 80.4167 98.2781 80.6084L68.5934 110.448C68.3827 110.659 68.0967 110.778 67.7982 110.779V110.779ZM59.8028 100.111L67.7982 108.106L96.0694 79.8795L88.0739 71.8841L59.8028 100.111Z" fill="white"/>
<path d="M91.4813 73.7951L61.6982 103.578L64.3376 106.218L94.1207 76.4345L91.4813 73.7951Z" fill="white"/>
<path d="M98.8743 62.6113L105.262 68.999C105.676 69.4132 105.909 69.975 105.909 70.5608C105.909 71.1465 105.676 71.7083 105.262 72.1225L100.436 76.9484L90.9092 67.4216L95.7195 62.6113C96.1337 62.1971 96.6955 61.9644 97.2813 61.9644C97.867 61.9644 98.4288 62.1971 98.843 62.6113L98.8743 62.6113Z" fill="white"/>
</svg>
