<svg width="166" height="169" viewBox="0 0 166 169" fill="none" xmlns="http://www.w3.org/2000/svg">
<path opacity="0.25" d="M165.5 84.0596C165.5 130.214 128.558 167.619 83 167.619C37.4425 167.619 0.5 130.214 0.5 84.0596C0.5 37.9049 37.4425 0.5 83 0.5C128.558 0.5 165.5 37.9049 165.5 84.0596Z" stroke="#FF9595"/>
<ellipse cx="83" cy="84.0599" rx="63" ry="63.8042" fill="#FF9595"/>
<path d="M103.689 115.191H63.0716C60.3984 115.185 57.8367 114.105 55.9486 112.189C54.0604 110.272 53 107.676 53 104.968V63.8769C53.0058 61.1735 54.0688 58.5825 55.9563 56.6708C57.8439 54.7592 60.4022 53.6827 63.0716 53.6768H103.689C106.355 53.6886 108.907 54.7677 110.79 56.6787C112.673 58.5897 113.733 61.1773 113.739 63.8769V105.013C113.721 107.707 112.657 110.286 110.776 112.19C108.895 114.095 106.349 115.173 103.689 115.191ZM63.0716 55.9136C60.988 55.9195 58.9914 56.7604 57.5181 58.2525C56.0448 59.7447 55.2145 61.7667 55.2087 63.8769V105.013C55.2203 107.119 56.0532 109.136 57.5259 110.623C58.9986 112.11 60.9918 112.948 63.0716 112.954H103.689C105.765 112.942 107.753 112.102 109.221 110.615C110.689 109.129 111.518 107.116 111.53 105.013V63.8769C111.524 61.7629 110.691 59.7374 109.213 58.2447C107.735 56.7519 105.732 55.9136 103.645 55.9136H63.0716Z" fill="white"/>
<path d="M112.679 68.9546H54.1045V71.1915H112.679V68.9546Z" fill="white"/>
<path d="M105.235 63.7203C105.796 63.7203 106.251 63.2596 106.251 62.6913C106.251 62.123 105.796 61.6624 105.235 61.6624C104.674 61.6624 104.219 62.123 104.219 62.6913C104.219 63.2596 104.674 63.7203 105.235 63.7203Z" fill="white"/>
<path d="M100.774 63.7203C101.335 63.7203 101.79 63.2596 101.79 62.6913C101.79 62.123 101.335 61.6624 100.774 61.6624C100.213 61.6624 99.7578 62.123 99.7578 62.6913C99.7578 63.2596 100.213 63.7203 100.774 63.7203Z" fill="white"/>
<path d="M96.3119 63.7203C96.873 63.7203 97.3279 63.2596 97.3279 62.6913C97.3279 62.123 96.873 61.6624 96.3119 61.6624C95.7508 61.6624 95.2959 62.123 95.2959 62.6913C95.2959 63.2596 95.7508 63.7203 96.3119 63.7203Z" fill="white"/>
<path d="M102.453 105.886H64.3309C64.038 105.886 63.7571 105.768 63.55 105.558C63.3429 105.348 63.2266 105.064 63.2266 104.767V79.4009C63.2266 79.1043 63.3429 78.8198 63.55 78.6101C63.7571 78.4003 64.038 78.2825 64.3309 78.2825H102.453C102.746 78.2825 103.027 78.4003 103.234 78.6101C103.441 78.8198 103.557 79.1043 103.557 79.4009V104.767C103.551 105.062 103.433 105.343 103.227 105.552C103.021 105.76 102.744 105.88 102.453 105.886ZM65.4352 103.649H101.348V80.4299H65.4352V103.649Z" fill="white"/>
<path d="M64.3305 105.886C64.1461 105.883 63.9651 105.835 63.8033 105.745C63.6416 105.656 63.5041 105.527 63.4028 105.371C63.243 105.124 63.1858 104.824 63.2437 104.535C63.3017 104.246 63.47 103.992 63.7121 103.828L101.834 78.372C102.08 78.2088 102.38 78.1513 102.668 78.2122C102.956 78.273 103.208 78.4471 103.369 78.6963C103.53 78.9455 103.587 79.2492 103.527 79.5408C103.467 79.8323 103.295 80.0878 103.049 80.2509L64.9268 105.684C64.7541 105.814 64.5453 105.884 64.3305 105.886V105.886Z" fill="white"/>
<path d="M102.431 105.886C102.216 105.884 102.007 105.814 101.834 105.684L63.7124 80.2509C63.4663 80.0878 63.2944 79.8323 63.2343 79.5408C63.1743 79.2492 63.231 78.9455 63.3921 78.6963C63.5532 78.4471 63.8054 78.273 64.0933 78.2122C64.3812 78.1513 64.6811 78.2088 64.9271 78.372L103.049 103.828C103.291 103.992 103.459 104.246 103.517 104.535C103.575 104.824 103.518 105.124 103.358 105.371C103.262 105.532 103.125 105.664 102.962 105.754C102.799 105.844 102.616 105.89 102.431 105.886V105.886Z" fill="white"/>
</svg>
